# xmcd
#
# Track frame offsets:
# 150
# 34200
# 85575
# 112800
# 141750
# 157125
# 208050
# 253050
# 285075
# 321525
#
# Disc length: 4762 seconds
#
#
# Revision: 2
# Processed by: cddbd v1.5.2PL0 Copyright (c) Steve Scherf et al.
# Submitted via: KELLER's_Musik_Katalog 2009 
#
DISCID=8a12980a
DTITLE=Elliott Sharp - electric Willie - a tribute to Willie Dixon
DYEAR=2010
DGENRE=blues
TTITLE0=Which came first
TTITLE1=Backdoor Man
TTITLE2=Eternity
TTITLE3=Wang dang doodle
TTITLE4=Pie in the Sky
TTITLE5=The same Thing
TTITLE6=Dead Presidents - Mighty Earthquake and Hurricane
TTITLE7=Grave Digger
TTITLE8=Spoonful
TTITLE9=It don't make Sense (You can't make Peace)
EXTD=Label: yellowbird\nBestellnummer: ywb-77152\nBesetzung: Henry Kaiser\nEric Mingus\nQueen Esther\nGlenn Phillips\nMelvin Gibbs\nLance Carter\n\n\n Für freedb bereitgestelt von:\n    KELLER'S Musik-Katalog 2009 2009
EXTT0=
EXTT1=
EXTT2=
EXTT3=
EXTT4=
EXTT5=
EXTT6=
EXTT7=
EXTT8=
EXTT9=
PLAYORDER=
